<?xml version="1.0" encoding="UTF-8" standalone="no"?>
<svg
   xmlns:dc="http://purl.org/dc/elements/1.1/"
   xmlns:cc="http://creativecommons.org/ns#"
   xmlns:rdf="http://www.w3.org/1999/02/22-rdf-syntax-ns#"
   xmlns:svg="http://www.w3.org/2000/svg"
   xmlns="http://www.w3.org/2000/svg"
   id="svg306014"
   viewBox="0 0 1024 480"
   height="480px"
   width="1024px"
   version="1.1">
  <metadata
     id="metadata306020">
    <rdf:RDF>
      <cc:Work
         rdf:about="">
        <dc:format>image/svg+xml</dc:format>
        <dc:type
           rdf:resource="http://purl.org/dc/dcmitype/StillImage" />
      </cc:Work>
    </rdf:RDF>
  </metadata>
  <defs
     id="defs306018" />
  <style
     id="style306011">
    #title &gt; path {
        fill: #9aafd4;
    }
    .c1{
    fill: #9aafd4;
    }
    .c2{
    fill: #a4bdd8;
    }
    .c3{
    fill: #bdd2e5;
    }
    </style>
  <g
     id="title"
     style="font-style:normal;font-weight:300;font-size:141.14285278px;line-height:1;font-family:'Montserrat Light Alt1';font-variant-ligatures:none;text-align:left;dominant-baseline:middle;text-anchor:middle"
     aria-label="VNEBULA">
    <path
       id="path306022"
       style="font-style:normal;font-weight:300;font-size:141.14285278px;line-height:1;font-family:'Montserrat Light Alt1';font-variant-ligatures:none;text-align:left;dominant-baseline:middle;text-anchor:middle"
       d="m 255.67466,178.03829 h -7.48058 l -39.94342,89.48457 -39.94343,-89.48457 h -7.904 l 44.03657,98.79999 h 7.19829 z" />
    <path
       id="path306024"
       style="font-style:normal;font-weight:300;font-size:141.14285278px;line-height:1;font-family:'Montserrat Light Alt1';font-variant-ligatures:none;text-align:left;dominant-baseline:middle;text-anchor:middle"
       d="m 352.05758,178.03829 h -7.19829 v 85.81485 L 277.6753,178.03829 h -6.06915 v 98.79999 h 7.19829 v -85.81485 l 67.32514,85.81485 h 5.928 z" />
    <path
       id="path306026"
       style="font-style:normal;font-weight:300;font-size:141.14285278px;line-height:1;font-family:'Montserrat Light Alt1';font-variant-ligatures:none;text-align:left;dominant-baseline:middle;text-anchor:middle"
       d="m 450.4981,223.48629 h -63.93771 v 6.35142 h 63.93771 z m 0,-45.448 h -63.93771 v 6.49257 h 63.93771 z m -63.93771,92.30742 v 6.49257 h 63.93771 v -6.49257 z" />
    <path
       id="path306028"
       style="font-style:normal;font-weight:300;font-size:141.14285278px;line-height:1;font-family:'Montserrat Light Alt1';font-variant-ligatures:none;text-align:left;dominant-baseline:middle;text-anchor:middle"
       d="m 555.92081,234.21314 c -3.66972,-4.23428 -9.03315,-6.916 -16.09029,-8.32743 4.94,-1.55257 9.03314,-4.37542 11.99714,-8.32742 2.964,-3.81086 4.51658,-8.46858 4.51658,-14.25543 0,-8.04515 -3.10515,-14.25543 -9.03315,-18.63086 -5.928,-4.37543 -14.25543,-6.63371 -24.98228,-6.63371 h -41.21372 v 6.21028 h 40.93143 c 8.60972,0 15.24343,1.69372 19.90114,5.08114 4.65772,3.38743 7.05715,8.18629 7.05715,14.53772 0,6.49257 -2.39943,11.43257 -7.05715,14.82 -4.65771,3.38743 -11.29142,4.94 -19.90114,4.94 h -40.93143 v 6.21028 h 44.03658 c 9.45657,0 16.79599,1.69372 21.73599,4.94 4.94,3.38743 7.48058,8.46857 7.48058,15.38457 0,7.05715 -2.54058,12.13829 -7.48058,15.52572 -4.94,3.38743 -12.13828,4.94 -21.73599,4.94 h -44.03658 v 6.21028 h 44.03658 c 11.99714,0 21.03028,-2.25828 27.24057,-6.77485 6.06914,-4.51657 9.17428,-10.868 9.17428,-19.33657 0,-6.63372 -1.976,-12.13829 -5.64571,-16.51372 z" />
    <path
       id="path306030"
       style="font-style:normal;font-weight:300;font-size:141.14285278px;line-height:1;font-family:'Montserrat Light Alt1';font-variant-ligatures:none;text-align:left;dominant-baseline:middle;text-anchor:middle"
       d="m 596.70448,266.676 c 6.916,7.33943 16.65486,10.868 29.21657,10.868 12.42057,0 22.15943,-3.52857 29.21657,-10.868 6.916,-7.19829 10.44457,-17.784 10.44457,-31.75714 v -56.88057 h -7.19828 v 56.59828 c 0,12.13829 -2.82286,21.31257 -8.32743,27.24057 -5.64572,6.06914 -13.54972,9.03314 -23.99429,9.03314 -10.58571,0 -18.63085,-2.964 -24.13543,-9.03314 -5.64571,-5.928 -8.32742,-15.10228 -8.32742,-27.24057 v -56.59828 h -7.19829 v 56.88057 c 0,13.97314 3.38743,24.55885 10.30343,31.75714 z" />
    <path
       id="path306032"
       style="font-style:normal;font-weight:300;font-size:141.14285278px;line-height:1;font-family:'Montserrat Light Alt1';font-variant-ligatures:none;text-align:left;dominant-baseline:middle;text-anchor:middle"
       d="m 699.16978,178.03829 v 98.79999 h 64.07886 v -6.49257 h -56.88057 v -92.30742 z" />
    <path
       id="path306034"
       style="font-style:normal;font-weight:300;font-size:141.14285278px;line-height:1;font-family:'Montserrat Light Alt1';font-variant-ligatures:none;text-align:left;dominant-baseline:middle;text-anchor:middle"
       d="m 818.27892,178.03829 h -7.19829 l -45.448,98.79999 h 7.76286 l 41.21371,-90.89599 41.35486,90.89599 h 7.76285 z" />
  </g>
</svg>