<?xml version="1.0" encoding="UTF-8" standalone="no"?>
<svg
   xmlns:dc="http://purl.org/dc/elements/1.1/"
   xmlns:cc="http://creativecommons.org/ns#"
   xmlns:rdf="http://www.w3.org/1999/02/22-rdf-syntax-ns#"
   xmlns:svg="http://www.w3.org/2000/svg"
   xmlns="http://www.w3.org/2000/svg"
   id="svg96120"
   viewBox="0 0 1024 480"
   height="480px"
   width="1024px"
   version="1.1">
  <metadata
     id="metadata96126">
    <rdf:RDF>
      <cc:Work
         rdf:about="">
        <dc:format>image/svg+xml</dc:format>
        <dc:type
           rdf:resource="http://purl.org/dc/dcmitype/StillImage" />
      </cc:Work>
    </rdf:RDF>
  </metadata>
  <defs
     id="defs96124" />
  <style
     id="style96117">
    #title &gt; path {
        fill: #9aafd4;
    }
    .c1{
    fill: #9aafd4;
    }
    .c2{
    fill: #a4bdd8;
    }
    .c3{
    fill: #bdd2e5;
    }
    </style>
  <g
     id="title"
     style="font-style:normal;font-weight:normal;font-size:141.14285278px;line-height:1;font-family:'Old Standard TT';font-variant-ligatures:none;text-align:left;dominant-baseline:middle;text-anchor:middle"
     aria-label="VNEBULA">
    <path
       id="path96128"
       style="font-style:normal;font-weight:normal;font-size:141.14285278px;line-height:1;font-family:'Old Standard TT';font-variant-ligatures:none;text-align:left;dominant-baseline:middle;text-anchor:middle"
       d="m 174.716,182.41371 q -1.27029,-3.52857 -3.24629,-4.79885 -1.976,-1.41143 -5.08114,-1.41143 h -8.892 v -4.51657 h 45.16571 v 4.51657 h -9.31543 q -1.976,0 -3.38742,1.12914 -1.41143,0.988 -1.41143,2.39943 0,1.55257 0.56457,3.10514 l 24.13543,67.88972 18.63085,-57.304 q 1.69372,-5.50457 1.69372,-9.73886 0,-2.964 -1.69372,-5.22229 -1.55257,-2.25828 -5.50457,-2.25828 h -7.62171 v -4.51657 h 38.10857 v 4.51657 h -5.22229 q -4.94,0 -7.62171,2.964 -2.68172,2.82286 -4.23429,7.33943 l -28.652,88.21428 h -3.52857 z" />
    <path
       id="path96130"
       style="font-style:normal;font-weight:normal;font-size:141.14285278px;line-height:1;font-family:'Old Standard TT';font-variant-ligatures:none;text-align:left;dominant-baseline:middle;text-anchor:middle"
       d="m 289.11007,187.07143 h -0.56457 v 69.30114 q 0,5.22228 2.39943,8.32743 2.54057,2.964 6.49257,2.964 h 5.08114 v 4.51657 h -33.592 V 267.664 h 5.08115 q 4.09314,0 6.49257,-2.964 2.39943,-3.10515 2.39943,-8.32743 v -76.35828 q -0.14115,-1.976 -0.988,-2.82286 -0.84686,-0.988 -2.82286,-0.988 h -10.16229 v -4.51657 h 26.676 l 48.97657,78.75771 v -62.94971 q 0,-5.22229 -2.39943,-8.18629 -2.39942,-3.10514 -6.35142,-3.10514 h -5.08115 v -4.51657 h 33.592 v 4.51657 h -5.08114 q -3.952,0 -6.49257,3.10514 -2.54057,2.964 -2.54057,8.18629 v 87.22628 h -5.64572 z" />
    <path
       id="path96132"
       style="font-style:normal;font-weight:normal;font-size:141.14285278px;line-height:1;font-family:'Old Standard TT';font-variant-ligatures:none;text-align:left;dominant-baseline:middle;text-anchor:middle"
       d="m 377.54048,267.664 h 10.16229 q 3.81085,0 3.81085,-3.81086 v -83.83885 q 0,-1.976 -0.988,-2.82286 -0.84685,-0.988 -2.82285,-0.988 h -10.16229 v -4.51657 h 78.75771 l 0.56458,35.28571 h -3.52858 q 0,-2.82286 -1.27028,-9.59771 -1.12914,-6.77486 -4.65772,-12.13829 -5.928,-9.03314 -16.65485,-9.03314 h -22.44172 q -1.976,0 -2.964,0.988 -0.84685,0.84686 -0.84685,2.82286 v 37.96742 h 10.868 q 7.19828,0 10.30342,-7.33943 3.24629,-7.33942 3.24629,-15.66685 h 3.66971 v 50.52914 h -3.66971 q 0,-8.32743 -3.24629,-15.66686 -3.10514,-7.33943 -10.30342,-7.33943 h -10.868 v 41.35486 q 0,3.81086 3.81085,3.81086 h 22.58286 q 4.09314,0 8.32743,-1.83486 4.23428,-1.83486 7.19828,-5.64571 2.82286,-3.952 4.65772,-9.88 1.83486,-5.928 2.54057,-10.72686 0.70571,-4.94 0.84686,-6.35143 h 3.52857 l -1.69372,38.95543 h -78.75771 z" />
    <path
       id="path96134"
       style="font-style:normal;font-weight:normal;font-size:141.14285278px;line-height:1;font-family:'Old Standard TT';font-variant-ligatures:none;text-align:left;dominant-baseline:middle;text-anchor:middle"
       d="m 474.85187,267.664 h 10.16228 q 3.81086,0 3.81086,-3.81086 v -83.83885 q 0,-1.976 -0.988,-2.82286 -0.84686,-0.988 -2.82286,-0.988 h -10.16228 v -4.51657 h 46.01257 q 8.32743,0 15.52571,3.10514 7.33943,3.10514 11.71486,8.60971 4.37543,5.36343 4.37543,12.27943 0,9.59772 -6.49257,15.808 -6.49258,6.21029 -15.10229,8.04514 v 0.56458 q 5.78686,0.42342 11.43257,3.66971 5.78686,3.10514 9.45657,8.60971 3.81086,5.50458 3.81086,12.42058 0,8.60971 -4.51657,14.81999 -4.51657,6.21029 -12.13829,9.45658 -7.48057,3.10514 -16.51371,3.10514 h -47.56514 z m 45.448,-50.24686 q 11.43257,0 15.52571,-5.78686 4.23429,-5.92799 4.23429,-15.94914 0,-8.46857 -5.36343,-13.97314 -5.36343,-5.50457 -13.26743,-5.50457 h -15.808 q -1.976,0 -2.964,0.988 -0.84686,0.84686 -0.84686,2.82286 v 37.40285 z m 0.56457,50.24686 q 8.60971,0 14.11428,-5.08115 5.64572,-5.22228 5.64572,-17.78399 0,-12.56172 -5.64572,-17.64286 -5.50457,-5.22229 -14.11428,-5.22229 h -19.05429 v 41.91943 q 0,3.81086 3.81086,3.81086 z" />
    <path
       id="path96136"
       style="font-style:normal;font-weight:normal;font-size:141.14285278px;line-height:1;font-family:'Old Standard TT';font-variant-ligatures:none;text-align:left;dominant-baseline:middle;text-anchor:middle"
       d="m 618.81317,274.72114 q -12.70285,0 -21.03028,-4.94 -8.32743,-5.08114 -12.27943,-13.12629 -3.81086,-8.18628 -3.81086,-17.92514 v -58.71542 q 0,-1.976 -0.988,-2.82286 -0.84685,-0.988 -2.82285,-0.988 h -10.16229 v -4.51657 h 41.07257 v 4.51657 H 598.4886 q -1.976,0 -2.964,0.988 -0.84685,0.84686 -0.84685,2.82286 v 62.52628 q 0,13.12628 6.35143,20.46571 6.35142,7.19829 17.78399,7.19829 8.892,0 15.24343,-3.52857 6.35143,-3.66972 9.59772,-9.59772 3.24628,-5.928 3.24628,-12.844 V 187.636 q 0,-5.22229 -2.54057,-8.32743 -2.54057,-3.10514 -6.49257,-3.10514 h -4.94 v -4.51657 h 33.592 v 4.51657 h -4.94 q -3.952,0 -6.49257,3.10514 -2.54057,3.10514 -2.54057,8.32743 v 55.18686 q 0,8.892 -4.09315,16.23142 -3.952,7.19829 -11.71485,11.43257 -7.62172,4.23429 -17.92515,4.23429 z" />
    <path
       id="path96138"
       style="font-style:normal;font-weight:normal;font-size:141.14285278px;line-height:1;font-family:'Old Standard TT';font-variant-ligatures:none;text-align:left;dominant-baseline:middle;text-anchor:middle"
       d="m 679.12308,267.664 h 10.16228 q 3.81086,0 3.81086,-3.81086 v -83.83885 q 0,-1.976 -0.988,-2.82286 -0.84686,-0.988 -2.82286,-0.988 h -10.16228 v -4.51657 h 43.18971 v 4.51657 h -12.42057 q -1.976,0 -2.964,0.988 -0.84686,0.84686 -0.84686,2.82286 v 83.83885 q 0,3.81086 3.81086,3.81086 h 14.25543 q 7.48057,0 13.40857,-3.38743 5.928,-3.38743 8.892,-9.88 2.25828,-4.79886 3.66971,-10.16229 1.55257,-5.50457 2.25829,-9.31542 0.70571,-3.81086 0.84686,-4.79886 h 3.52857 l -1.27029,42.06057 h -76.35828 z" />
    <path
       id="path96140"
       style="font-style:normal;font-weight:normal;font-size:141.14285278px;line-height:1;font-family:'Old Standard TT';font-variant-ligatures:none;text-align:left;dominant-baseline:middle;text-anchor:middle"
       d="m 771.41948,267.664 h 5.22229 q 8.32742,0 12.13828,-10.30343 l 30.34571,-85.67371 h 3.52858 l 30.62799,89.76685 q 1.41143,3.52857 3.38743,4.94 1.976,1.27029 5.08115,1.27029 h 7.904 v 4.51657 H 825.90062 V 267.664 h 9.31543 q 2.11714,0 3.52857,-0.988 1.41143,-1.12915 1.41143,-2.54057 0,-1.83486 -0.56457,-3.10515 l -6.63372,-18.772 h -33.02742 l -3.38743,9.45658 q -1.976,5.64571 -1.976,8.18628 0,3.10514 1.55257,5.50457 1.55257,2.25829 5.36343,2.25829 h 8.60971 v 4.51657 h -38.67314 z m 30.06343,-29.92229 h 29.92228 l -14.67885,-43.04857 z" />
  </g>
</svg>